<?xml version="1.0" encoding="UTF-8"?>
<svg id="Layer_1" data-name="Layer 1" xmlns="http://www.w3.org/2000/svg" viewBox="0 0 316.91 337.18">
  <defs>
    <style>
      .cls-1 {
        fill: #fff;
        stroke-width: 0px;
      }
    </style>
  </defs>
  <path class="cls-1" d="m34.49,50.5c0,6.26,0,12.21,0,18.16-.01,23.12-.48,46.26.18,69.37.26,9.25-1.73,17.99-2.72,26.96-3.24,29.4,2.08,56.96,18.29,82,18.05,27.89,44.02,44.79,76.07,51.64,28.34,6.06,55.61,1.24,81.22-12.47,2.42-1.29,4.85-2.63,7.4-3.59,11.4-4.25,18.84,5.42,17.83,15.02-.73,6.93-4.77,11.47-10.49,15.04-12.8,8-26.87,12.59-41.5,15.58-41.05,8.4-78.92.71-113.51-22.92-33.83-23.11-55.37-54.61-64.01-94.72-4.31-20.04-4.08-40.34-.7-60.37,2.64-15.68,2.27-31.32,2.38-47.01.21-29.25.08-58.5.17-87.74.02-5.66.96-11.21,6.61-14.12,5.61-2.89,10.6-.67,15.3,2.72,19.55,14.09,39.13,28.15,58.7,42.21.71.51,1.43,1,2.14,1.52,2.78,2.02,5.14,2.46,8.75.67,26.33-13.01,54.17-18.15,83.55-15.86,31.5,2.45,59.51,13.51,84.08,33.12,25.12,20.05,43.44,44.91,50,76.91,4.98,24.31,3.16,48.42-5.98,71.73-2.69,6.87-8.85,10.18-16.25,8.93-6.7-1.14-12.41-7.68-12.34-14.94.03-3.94.93-7.91,1.77-11.79,5.56-25.54,4.57-50.41-7.79-74.01-9.46-18.06-23.41-31.82-40.88-42.26-17.76-10.6-36.99-16.47-57.47-17.82-21.64-1.42-42.67,1.48-61.92,12.35-4.32,2.44-8.19,5.69-12.13,8.74-6.2,4.8-11.27,5.2-17.79.7-8.73-6.03-17.29-12.3-25.96-18.43-7.03-4.97-14.1-9.88-21.18-14.79-.36-.25-.88-.27-1.79-.53Z"/>
  <path class="cls-1" d="m224.97,224.6c.75.41,1.15.78,1.6.86,17.08,3.3,31.5,12.37,45.88,21.38,8.14,5.1,15.93,10.77,23.68,16.46,7.28,5.34,9.44,14.96,4.76,22.67-3.22,5.3-7.24,10.16-11.23,14.94-8.55,10.27-17.12,20.54-26.07,30.47-6.11,6.78-14.47,7.5-22.15,2.78-7.17-4.41-9.15-13.12-3.9-19.59,9.36-11.54,19.07-22.79,28.55-34.06-17.94-13.99-37.84-23.93-60.02-29.75-7.07-1.85-13.14-2.3-20.2-.21-16.64,4.93-32.32.66-46.64-8.04-24.1-14.62-35.85-36.47-34.35-64.61,1.25-23.5,12.33-41.82,32.35-54.41,14.69-9.24,30.59-12.52,47.7-8.86,2.55.55,4.99,1.56,7.5,2.29,3.07.88,6.18,1.64,9.24,2.53,1.54.45,3.26.78,4.49,1.7,15.28,11.46,28.29,24.51,32.22,44.33,4.14,20.89,1.44,40.19-12.16,57.25-.38.48-.69,1.02-1.26,1.87Zm-89.67-42.1c-.68,19.46,15.88,37.53,35.18,38.11,15.26.46,38.12-12.05,39.08-37.61.84-22.33-18.11-37.93-35.97-38.47-20.32-.61-37.54,16.42-38.29,37.98Z"/>
</svg>